<svg width="143" height="124" viewBox="0 0 143 124" fill="none" xmlns="http://www.w3.org/2000/svg">
<rect x="70.8262" y="14.579" width="58.8568" height="37.125" rx="10.4131" fill="white"/>
<circle cx="79.429" cy="21.3698" r="1.81098" fill="#DFE1E6"/>
<circle cx="84.8622" cy="21.3698" r="1.81098" fill="#DFE1E6"/>
<circle cx="90.2942" cy="21.3698" r="1.81098" fill="#DFE1E6"/>
<rect x="77.618" y="24.9919" width="45.2744" height="19.9207" rx="1.81098" fill="#FDF1EC"/>
<rect x="70.8262" y="14.579" width="58.8568" height="37.125" rx="10.4131" stroke="#DFE1E6" stroke-width="0.905488"/>
<rect x="17.7052" y="14.579" width="58.8568" height="37.125" rx="10.4131" fill="white"/>
<circle cx="26.3074" cy="21.3698" r="1.81098" fill="#DFE1E6"/>
<circle cx="31.74" cy="21.3698" r="1.81098" fill="#DFE1E6"/>
<circle cx="37.1727" cy="21.3698" r="1.81098" fill="#DFE1E6"/>
<rect x="24.4964" y="24.9919" width="45.2744" height="19.9207" rx="1.81098" fill="#FDF1EC"/>
<rect x="17.7052" y="14.579" width="58.8568" height="37.125" rx="10.4131" stroke="#DFE1E6" stroke-width="0.905488"/>
<rect x="17.7052" y="73.1859" width="58.8568" height="37.125" rx="10.4131" fill="white"/>
<circle cx="26.3074" cy="79.9772" r="1.81098" fill="#DFE1E6"/>
<circle cx="31.74" cy="79.9772" r="1.81098" fill="#DFE1E6"/>
<circle cx="37.1727" cy="79.9772" r="1.81098" fill="#DFE1E6"/>
<rect x="24.4964" y="83.5991" width="45.2744" height="19.9207" rx="1.81098" fill="#FDF1EC"/>
<rect x="17.7052" y="73.1859" width="58.8568" height="37.125" rx="10.4131" stroke="#DFE1E6" stroke-width="0.905488"/>
<rect x="44.8554" y="0.996567" width="58.8568" height="37.125" rx="10.4131" fill="white"/>
<circle cx="53.4575" cy="7.78749" r="1.81098" fill="#DFE1E6"/>
<circle cx="58.8895" cy="7.78749" r="1.81098" fill="#DFE1E6"/>
<circle cx="64.3234" cy="7.78749" r="1.81098" fill="#DFE1E6"/>
<rect x="51.6465" y="11.4096" width="45.2744" height="19.9207" rx="1.81098" fill="#FDF1EC"/>
<rect x="44.8554" y="0.996567" width="58.8568" height="37.125" rx="10.4131" stroke="#DFE1E6" stroke-width="0.905488"/>
<rect x="70.8262" y="73.1859" width="58.8568" height="37.125" rx="10.4131" fill="white"/>
<circle cx="79.429" cy="79.9771" r="1.81098" fill="#DFE1E6"/>
<circle cx="84.8622" cy="79.9771" r="1.81098" fill="#DFE1E6"/>
<circle cx="90.2942" cy="79.9771" r="1.81098" fill="#DFE1E6"/>
<rect x="77.618" y="83.5989" width="45.2744" height="19.9207" rx="1.81098" fill="#FDF1EC"/>
<rect x="70.8262" y="73.1859" width="58.8568" height="37.125" rx="10.4131" stroke="#DFE1E6" stroke-width="0.905488"/>
<rect x="44.8554" y="86.1123" width="58.8568" height="37.125" rx="10.4131" fill="white"/>
<circle cx="53.4575" cy="92.9037" r="1.81098" fill="#DFE1E6"/>
<circle cx="58.8914" cy="92.9037" r="1.81098" fill="#DFE1E6"/>
<circle cx="64.3234" cy="92.9037" r="1.81098" fill="#DFE1E6"/>
<rect x="51.6465" y="96.5253" width="45.2744" height="19.9207" rx="1.81098" fill="#FDF1EC"/>
<rect x="44.8554" y="86.1123" width="58.8568" height="37.125" rx="10.4131" stroke="#DFE1E6" stroke-width="0.905488"/>
<rect x="1.10429" y="42.6926" width="58.8568" height="37.125" rx="10.4131" fill="white"/>
<circle cx="9.7071" cy="49.484" r="1.81098" fill="#DFE1E6"/>
<circle cx="15.1391" cy="49.484" r="1.81098" fill="#DFE1E6"/>
<circle cx="20.5724" cy="49.484" r="1.81098" fill="#DFE1E6"/>
<rect x="7.89612" y="53.1058" width="45.2744" height="19.9207" rx="1.81098" fill="#FDF1EC"/>
<rect x="1.10429" y="42.6926" width="58.8568" height="37.125" rx="10.4131" stroke="#DFE1E6" stroke-width="0.905488"/>
<rect x="83.2018" y="42.6926" width="58.8568" height="37.125" rx="10.4131" fill="white"/>
<circle cx="91.804" cy="49.484" r="1.81098" fill="#DFE1E6"/>
<circle cx="97.2373" cy="49.484" r="1.81098" fill="#DFE1E6"/>
<circle cx="102.67" cy="49.484" r="1.81098" fill="#DFE1E6"/>
<rect x="89.993" y="53.1058" width="45.2744" height="19.9207" rx="1.81098" fill="#FDF1EC"/>
<rect x="83.2018" y="42.6926" width="58.8568" height="37.125" rx="10.4131" stroke="#DFE1E6" stroke-width="0.905488"/>
<rect x="36.9057" y="26.9055" width="70.189" height="72.189" rx="9.96037" fill="#CCDAED"/>
<g clip-path="url(#clip0)">
<rect x="65.5715" y="65.3288" width="16.3621" height="16.7517" fill="#4074BC"/>
<path d="M94.4893 59.6266H89.7104V43.8843C89.7104 38.9156 85.6834 34.8887 80.7147 34.8887H63.2857C58.317 34.8887 54.2901 38.9156 54.2901 43.8843V59.6266H49.5112C48.2672 59.6266 47.2622 60.6316 47.2622 61.8755V88.8624C47.2622 90.1064 48.2672 91.1113 49.5112 91.1113H94.4893C95.7332 91.1113 96.7382 90.1064 96.7382 88.8624V61.8755C96.7382 60.6316 95.7332 59.6266 94.4893 59.6266ZM73.968 76.2826V80.0074C73.968 80.3166 73.715 80.5696 73.4058 80.5696H70.5946C70.2854 80.5696 70.0324 80.3166 70.0324 80.0074V76.2826C69.4523 75.8661 69.0193 75.2763 68.7957 74.598C68.5722 73.9197 68.5696 73.188 68.7884 72.5082C69.0071 71.8284 69.436 71.2355 70.0131 70.8149C70.5903 70.3943 71.2861 70.1677 72.0002 70.1677C72.7144 70.1677 73.4101 70.3943 73.9873 70.8149C74.5645 71.2355 74.9933 71.8284 75.2121 72.5082C75.4308 73.188 75.4283 73.9197 75.2047 74.598C74.9811 75.2763 74.5481 75.8661 73.968 76.2826ZM84.6503 59.6266H59.3501V43.8843C59.3501 41.7127 61.1141 39.9487 63.2857 39.9487H80.7147C82.8863 39.9487 84.6503 41.7127 84.6503 43.8843V59.6266Z" fill="#4074BC"/>
<path d="M82.4144 75.4316C82.4144 78.3385 81.2382 80.9708 79.3357 82.8784C77.4265 84.7927 74.7859 85.9773 71.8686 85.9773C68.9513 85.9773 66.3107 84.7927 64.4015 82.8784C62.4991 80.9708 61.3229 78.3385 61.3229 75.4316C61.3229 69.6073 66.0444 64.8858 71.8686 64.8858C77.6929 64.8858 82.4144 69.6073 82.4144 75.4316Z" fill="#0045A5"/>
<ellipse cx="71.8688" cy="72.7951" rx="4.39406" ry="4.39406" fill="white"/>
<path d="M71.8684 79.1225C67.7429 79.1225 64.3985 80.7947 64.3985 82.8575C66.3077 84.7719 68.9517 85.9773 71.869 85.9773C74.7863 85.9773 77.427 84.7927 79.3362 82.8783C79.3362 80.8155 75.9939 79.1225 71.8684 79.1225Z" fill="white"/>
</g>
<rect x="36.9057" y="26.9055" width="70.189" height="72.189" rx="9.96037" stroke="#4074BC" stroke-width="1.81098"/>
<defs>
<clipPath id="clip0">
<rect width="49.4759" height="56.2227" fill="white" transform="translate(47.2622 34.8887)"/>
</clipPath>
</defs>
</svg>
