<svg width="24" height="25" viewBox="0 0 24 25" fill="none" xmlns="http://www.w3.org/2000/svg">
<g clip-path="url(#clip0)">
<path d="M12.152 7.30097C11.204 7.30097 9.737 6.22297 8.192 6.26097C6.152 6.28797 4.282 7.44397 3.231 9.27497C1.114 12.95 2.685 18.378 4.75 21.365C5.763 22.819 6.958 24.455 8.542 24.404C10.062 24.339 10.632 23.417 12.477 23.417C14.308 23.417 14.827 24.404 16.437 24.365C18.074 24.339 19.113 22.885 20.113 21.417C21.269 19.729 21.749 18.092 21.775 18.002C21.736 17.989 18.593 16.781 18.555 13.145C18.529 10.105 21.035 8.65097 21.152 8.58597C19.723 6.49597 17.529 6.26197 16.762 6.20997C14.762 6.05397 13.087 7.29997 12.152 7.29997V7.30097ZM15.53 4.23497C16.373 3.22297 16.93 1.80797 16.775 0.404968C15.568 0.456968 14.113 1.20997 13.243 2.22297C12.463 3.11897 11.789 4.56097 11.97 5.93697C13.308 6.04097 14.685 5.24897 15.529 4.23597" fill="black"/>
</g>
<defs>
<clipPath id="clip0">
<rect width="24" height="24" fill="white" transform="translate(0 0.404968)"/>
</clipPath>
</defs>
</svg>
