<svg width="20" height="20" viewBox="0 0 20 20" fill="none" xmlns="http://www.w3.org/2000/svg">
<path d="M14.7327 3.44369V1.71824C14.7327 1.56869 14.5608 1.4861 14.4447 1.57761L4.38224 9.43699C4.29674 9.50348 4.22756 9.58861 4.17998 9.6859C4.13239 9.78319 4.10765 9.89007 4.10765 9.99837C4.10765 10.1067 4.13239 10.2136 4.17998 10.3108C4.22756 10.4081 4.29674 10.4933 4.38224 10.5598L14.4447 18.4191C14.563 18.5107 14.7327 18.4281 14.7327 18.2785V16.5531C14.7327 16.4437 14.6813 16.3388 14.5965 16.2718L6.56081 9.99949L14.5965 3.72494C14.6813 3.65797 14.7327 3.55306 14.7327 3.44369Z" fill="#021836"/>
</svg>
