<svg width="18" height="18" viewBox="1 1 16 16" fill="none" xmlns="http://www.w3.org/2000/svg">
<path d="M9 -0.170471C3.68477 -0.170471 -0.625 4.13929 -0.625 9.45453C-0.625 14.7698 3.68477 19.0795 9 19.0795C14.3152 19.0795 18.625 14.7698 18.625 9.45453C18.625 4.13929 14.3152 -0.170471 9 -0.170471ZM13.1572 6.31137L8.63262 12.5848C8.56938 12.6731 8.48601 12.745 8.38943 12.7946C8.29284 12.8442 8.18583 12.8701 8.07725 12.8701C7.96866 12.8701 7.86165 12.8442 7.76506 12.7946C7.66848 12.745 7.58511 12.6731 7.52188 12.5848L4.84277 8.8723C4.76113 8.75844 4.84277 8.59945 4.98242 8.59945H5.99004C6.20918 8.59945 6.41758 8.70472 6.54648 8.88519L8.07617 11.0078L11.4535 6.32425C11.5824 6.14593 11.7887 6.03851 12.01 6.03851H13.0176C13.1572 6.03851 13.2389 6.1975 13.1572 6.31137Z" fill="white"/>
</svg>
