<svg width="24" height="25" viewBox="0 0 24 25" fill="none" xmlns="http://www.w3.org/2000/svg">
<g clip-path="url(#clip0)">
<path d="M24 12.478C24 5.85097 18.627 0.477966 12 0.477966C5.373 0.477966 0 5.85097 0 12.478C0 18.468 4.388 23.432 10.125 24.332V15.947H7.078V12.477H10.125V9.83497C10.125 6.82797 11.917 5.16597 14.658 5.16597C15.97 5.16597 17.344 5.40097 17.344 5.40097V8.35397H15.83C14.339 8.35397 13.874 9.27897 13.874 10.228V12.478H17.202L16.67 15.948H13.874V24.333C19.612 23.432 24 18.467 24 12.478Z" fill="#3378EA"/>
</g>
<defs>
<clipPath id="clip0">
<rect width="24" height="24" fill="white" transform="translate(0 0.404968)"/>
</clipPath>
</defs>
</svg>
