<svg width="32" height="33" viewBox="0 0 32 33" fill="none" xmlns="http://www.w3.org/2000/svg">
<path d="M5 28.3013C5 28.8544 5.44687 29.3013 6 29.3013H14.9375V17.5513H5V28.3013ZM17.0625 29.3013H26C26.5531 29.3013 27 28.8544 27 28.3013V17.5513H17.0625V29.3013ZM27.5 10.0513H22.8875C23.3125 9.38252 23.5625 8.58877 23.5625 7.73877C23.5625 5.36064 21.6281 3.42627 19.25 3.42627C17.9563 3.42627 16.7906 4.00127 16 4.90752C15.2094 4.00127 14.0437 3.42627 12.75 3.42627C10.3719 3.42627 8.4375 5.36064 8.4375 7.73877C8.4375 8.58877 8.68438 9.38252 9.1125 10.0513H4.5C3.94687 10.0513 3.5 10.4981 3.5 11.0513V15.4263H14.9375V10.0513H17.0625V15.4263H28.5V11.0513C28.5 10.4981 28.0531 10.0513 27.5 10.0513ZM14.9375 9.92627H12.75C11.5437 9.92627 10.5625 8.94502 10.5625 7.73877C10.5625 6.53252 11.5437 5.55127 12.75 5.55127C13.9563 5.55127 14.9375 6.53252 14.9375 7.73877V9.92627ZM19.25 9.92627H17.0625V7.73877C17.0625 6.53252 18.0437 5.55127 19.25 5.55127C20.4562 5.55127 21.4375 6.53252 21.4375 7.73877C21.4375 8.94502 20.4562 9.92627 19.25 9.92627Z" fill="#0045A5"/>
</svg>
