<svg width="32" height="33" viewBox="0 0 32 33" fill="none" xmlns="http://www.w3.org/2000/svg">
<path d="M28.8438 9.31682C28.4249 8.34694 27.8209 7.46804 27.0656 6.72932C26.3098 5.9884 25.4186 5.39961 24.4406 4.99495C23.4265 4.57368 22.3388 4.35804 21.2406 4.36057C19.7 4.36057 18.1969 4.78245 16.8906 5.57932C16.5781 5.76995 16.2812 5.97932 16 6.20745C15.7188 5.97932 15.4219 5.76995 15.1094 5.57932C13.8031 4.78245 12.3 4.36057 10.7594 4.36057C9.65 4.36057 8.575 4.57307 7.55937 4.99495C6.57812 5.4012 5.69375 5.98557 4.93437 6.72932C4.17811 7.4672 3.57399 8.34631 3.15625 9.31682C2.72188 10.3262 2.5 11.3981 2.5 12.5012C2.5 13.5418 2.7125 14.6262 3.13438 15.7293C3.4875 16.6512 3.99375 17.6074 4.64062 18.5731C5.66563 20.1012 7.075 21.6949 8.825 23.3106C11.725 25.9887 14.5969 27.8387 14.7188 27.9137L15.4594 28.3887C15.7875 28.5981 16.2094 28.5981 16.5375 28.3887L17.2781 27.9137C17.4 27.8356 20.2687 25.9887 23.1719 23.3106C24.9219 21.6949 26.3313 20.1012 27.3563 18.5731C28.0031 17.6074 28.5125 16.6512 28.8625 15.7293C29.2844 14.6262 29.4969 13.5418 29.4969 12.5012C29.5 11.3981 29.2781 10.3262 28.8438 9.31682Z" fill="#0045A5"/>
</svg>
