<svg width="107" height="125" viewBox="0 0 107 125" fill="none" xmlns="http://www.w3.org/2000/svg" xmlns:xlink="http://www.w3.org/1999/xlink">
<rect x="39.7853" y="65.4454" width="34.9096" height="35.7408" fill="#0045A5"/>
<path d="M101.482 53.28H91.2856V19.6927C91.2856 9.09174 82.6939 0.5 72.0929 0.5H34.907C24.306 0.5 15.7143 9.09174 15.7143 19.6927V53.28H5.51815C2.86416 53.28 0.719971 55.4242 0.719971 58.0782V115.656C0.719971 118.31 2.86416 120.455 5.51815 120.455H101.482C104.136 120.455 106.28 118.31 106.28 115.656V58.0782C106.28 55.4242 104.136 53.28 101.482 53.28ZM57.6984 88.8165V96.7635C57.6984 97.4232 57.1586 97.963 56.4988 97.963H50.5011C49.8413 97.963 49.3015 97.4232 49.3015 96.7635V88.8165C48.0638 87.9279 47.14 86.6694 46.663 85.2223C46.186 83.7752 46.1805 82.214 46.6473 80.7636C47.114 79.3131 48.029 78.0482 49.2604 77.1508C50.4918 76.2535 51.9763 75.77 53.5 75.77C55.0237 75.77 56.5081 76.2535 57.7395 77.1508C58.9709 78.0482 59.8859 79.3131 60.3526 80.7636C60.8194 82.214 60.8139 83.7752 60.3369 85.2223C59.8599 86.6694 58.9361 87.9279 57.6984 88.8165ZM80.4897 53.28H26.5102V19.6927C26.5102 15.0595 30.2738 11.2959 34.907 11.2959H72.0929C76.7261 11.2959 80.4897 15.0595 80.4897 19.6927V53.28Z" fill="#0045A5"/>
<path d="M75.72 87C75.72 93.2022 73.2105 98.8182 69.1516 102.888C65.0782 106.973 59.4442 109.5 53.22 109.5C46.9957 109.5 41.3618 106.973 37.2884 102.888C33.2294 98.8182 30.72 93.2022 30.72 87C30.72 74.5736 40.7936 64.5 53.22 64.5C65.6464 64.5 75.72 74.5736 75.72 87Z" fill="#021836"/>
<ellipse cx="53.22" cy="81.375" rx="9.375" ry="9.375" fill="white"/>
<path d="M53.22 94.875C44.4179 94.875 37.2825 98.4427 37.2825 102.844C41.3559 106.928 46.9971 109.5 53.2214 109.5C59.4456 109.5 65.0796 106.973 69.153 102.888C69.153 98.4871 62.022 94.875 53.22 94.875Z" fill="white"/>
<rect x="4" y="136.455" width="99" height="20" fill="url(#pattern0)"/>
<defs>
<pattern id="pattern0" patternContentUnits="objectBoundingBox" width="1" height="1">
<use xlink:href="#image0" transform="translate(0 0.0235625) scale(0.000625 0.00309375)"/>
</pattern>
</defs>
</svg>
