<svg width="44" height="44" viewBox="0 0 44 44" fill="none" xmlns="http://www.w3.org/2000/svg">
<path d="M5.5 8.25L22 2.75L38.5 8.25V24.75C38.5 33.8637 31.1137 41.25 22 41.25C12.8863 41.25 5.5 33.8637 5.5 24.75V8.25Z" fill="#0045A5"/>
<path d="M32.9983 21.9986C32.9983 25.0307 31.7715 27.7763 29.7872 29.7659C27.7958 31.7627 25.0415 32.9983 21.9986 32.9983C18.9558 32.9983 16.2015 31.7627 14.2101 29.7659C12.2258 27.7763 10.999 25.0307 10.999 21.9986C10.999 15.9237 15.9237 10.999 21.9986 10.999C28.0736 10.999 32.9983 15.9237 32.9983 21.9986Z" fill="#021836"/>
<ellipse cx="21.9995" cy="19.2495" rx="4.58351" ry="4.58351" fill="white"/>
<path d="M21.9995 25.8516C17.6961 25.8516 14.2075 27.5959 14.2075 29.7475C16.199 31.7445 18.9571 33.0018 22.0002 33.0018C25.0432 33.0018 27.7977 31.7662 29.7892 29.7693C29.7892 27.6176 26.3029 25.8516 21.9995 25.8516Z" fill="white"/>
</svg>
