<svg width="32" height="33" viewBox="0 0 32 33" fill="none" xmlns="http://www.w3.org/2000/svg">
<path d="M27.6844 17.0416C28.2094 16.3479 28.5 15.4979 28.5 14.6135C28.5 13.2104 27.7156 11.8823 26.4531 11.1416C26.1281 10.951 25.7581 10.8507 25.3813 10.851H17.8875L18.075 7.01038C18.1188 6.08225 17.7906 5.201 17.1531 4.52912C16.8403 4.19796 16.4628 3.93448 16.0441 3.75495C15.6254 3.57543 15.1743 3.48368 14.7188 3.48537C13.0938 3.48537 11.6562 4.57912 11.225 6.14475L8.54062 15.8635H8.53125V29.2385H23.2906C23.5781 29.2385 23.8594 29.1823 24.1187 29.0698C25.6062 28.4354 26.5656 26.9823 26.5656 25.3698C26.5656 24.976 26.5094 24.5885 26.3969 24.2135C26.9219 23.5198 27.2125 22.6698 27.2125 21.7854C27.2125 21.3916 27.1562 21.0041 27.0438 20.6291C27.5688 19.9354 27.8594 19.0854 27.8594 18.201C27.8531 17.8073 27.7969 17.4166 27.6844 17.0416ZM3.5 16.8635V28.2385C3.5 28.7916 3.94687 29.2385 4.5 29.2385H6.53125V15.8635H4.5C3.94687 15.8635 3.5 16.3104 3.5 16.8635Z" fill="#0045A5"/>
</svg>
